<svg xmlns="http://www.w3.org/2000/svg" width="103" height="49" viewBox="0 0 103 49" fill="none"><path fill-rule="evenodd" clip-rule="evenodd" d="M23.8626 27.179C24.3242 26.5916 24.7156 25.9582 25.0322 25.2917V31L27 31V21H31.6667L41 31H44.0645L34.3924 21H38V19H32.4579L25.0322 11.3226V19H18V21L23.6116 21C23.6116 22.7057 23.0387 24.362 21.9847 25.7032C20.9307 27.0444 19.4568 27.9926 17.7994 28.3959C16.142 28.7991 14.3972 28.634 12.8449 27.9269C11.2926 27.2199 10.0228 26.0119 9.23914 24.4968C8.45552 22.9817 8.20351 21.2473 8.52355 19.5719C8.84359 17.8964 9.71713 16.377 11.004 15.2574C12.2909 14.1378 13.9166 13.483 15.6202 13.3979C17.3238 13.3127 19.0066 13.8023 20.3987 14.7881L21.779 12.8389C19.9501 11.5438 17.7392 10.9006 15.501 11.0125C13.2628 11.1243 11.1271 11.9846 9.43638 13.4555C7.74569 14.9264 6.59805 16.9226 6.17759 19.1237C5.75713 21.3249 6.08821 23.6035 7.11772 25.594C8.14723 27.5845 9.8155 29.1715 11.8549 30.1004C13.8943 31.0293 16.1866 31.2463 18.364 30.7165C20.5415 30.1868 22.4779 28.941 23.8626 27.179ZM27 19H29.8L27 16V19Z" fill="white"></path><path d="M6.224 42L8.28 36.4H9.152L11.208 42H10.352L8.712 37.36L7.064 42H6.224ZM7.152 40.616L7.376 39.976H10.008L10.232 40.616H7.152ZM15.5259 42V36.4H17.4219C17.8645 36.4 18.2272 36.4747 18.5099 36.624C18.7925 36.7733 19.0005 36.9733 19.1339 37.224C19.2725 37.4693 19.3419 37.7493 19.3419 38.064C19.3419 38.3627 19.2725 38.64 19.1339 38.896C19.0005 39.1467 18.7899 39.3493 18.5019 39.504C18.2139 39.6533 17.8459 39.728 17.3979 39.728H16.3259V42H15.5259ZM18.4699 42L17.2619 39.512H18.1419L19.3979 42H18.4699ZM16.3259 39.12H17.3659C17.7605 39.12 18.0512 39.024 18.2379 38.832C18.4245 38.6347 18.5179 38.384 18.5179 38.08C18.5179 37.7707 18.4272 37.5253 18.2459 37.344C18.0645 37.1627 17.7712 37.072 17.3659 37.072H16.3259V39.12ZM26.3534 42.096C25.8041 42.096 25.3294 41.976 24.9294 41.736C24.5348 41.4907 24.2281 41.152 24.0094 40.72C23.7961 40.2827 23.6894 39.776 23.6894 39.2C23.6894 38.6293 23.7961 38.1253 24.0094 37.688C24.2281 37.2507 24.5348 36.912 24.9294 36.672C25.3294 36.4267 25.8041 36.304 26.3534 36.304C27.0094 36.304 27.5401 36.4613 27.9454 36.776C28.3561 37.0907 28.6174 37.5333 28.7294 38.104H27.8494C27.7694 37.7733 27.6041 37.5093 27.3534 37.312C27.1081 37.1147 26.7748 37.016 26.3534 37.016C25.9748 37.016 25.6468 37.104 25.3694 37.28C25.0921 37.456 24.8788 37.7067 24.7294 38.032C24.5801 38.3573 24.5054 38.7467 24.5054 39.2C24.5054 39.6533 24.5801 40.0453 24.7294 40.376C24.8788 40.7013 25.0921 40.952 25.3694 41.128C25.6468 41.2987 25.9748 41.384 26.3534 41.384C26.7748 41.384 27.1081 41.2907 27.3534 41.104C27.6041 40.912 27.7694 40.6533 27.8494 40.328H28.7294C28.6174 40.8827 28.3561 41.3173 27.9454 41.632C27.5401 41.9413 27.0094 42.096 26.3534 42.096ZM36.7665 42V36.4H37.5665V42H36.7665ZM33.2065 42V36.4H34.0065V42H33.2065ZM33.8705 39.472V38.816H36.9425V39.472H33.8705ZM42.2578 42V36.4H43.0578V42H42.2578ZM49.0505 42V37.056H47.3945V36.4H51.5145V37.056H49.8505V42H49.0505ZM55.8446 42V36.4H59.3806V37.056H56.6446V38.848H59.1406V39.488H56.6446V41.344H59.3806V42H55.8446ZM66.3909 42.096C65.8416 42.096 65.3669 41.976 64.9669 41.736C64.5723 41.4907 64.2656 41.152 64.0469 40.72C63.8336 40.2827 63.7269 39.776 63.7269 39.2C63.7269 38.6293 63.8336 38.1253 64.0469 37.688C64.2656 37.2507 64.5723 36.912 64.9669 36.672C65.3669 36.4267 65.8416 36.304 66.3909 36.304C67.0469 36.304 67.5776 36.4613 67.9829 36.776C68.3936 37.0907 68.6549 37.5333 68.7669 38.104H67.8869C67.8069 37.7733 67.6416 37.5093 67.3909 37.312C67.1456 37.1147 66.8123 37.016 66.3909 37.016C66.0123 37.016 65.6843 37.104 65.4069 37.28C65.1296 37.456 64.9163 37.7067 64.7669 38.032C64.6176 38.3573 64.5429 38.7467 64.5429 39.2C64.5429 39.6533 64.6176 40.0453 64.7669 40.376C64.9163 40.7013 65.1296 40.952 65.4069 41.128C65.6843 41.2987 66.0123 41.384 66.3909 41.384C66.8123 41.384 67.1456 41.2907 67.3909 41.104C67.6416 40.912 67.8069 40.6533 67.8869 40.328H68.7669C68.6549 40.8827 68.3936 41.3173 67.9829 41.632C67.5776 41.9413 67.0469 42.096 66.3909 42.096ZM74.4386 42V37.056H72.7826V36.4H76.9026V37.056H75.2386V42H74.4386ZM83.2968 42.096C82.9021 42.096 82.5448 42.0187 82.2248 41.864C81.9048 41.704 81.6488 41.464 81.4568 41.144C81.2701 40.8187 81.1768 40.4053 81.1768 39.904V36.4H81.9768V39.912C81.9768 40.248 82.0328 40.5253 82.1448 40.744C82.2568 40.9573 82.4114 41.1173 82.6088 41.224C82.8114 41.3253 83.0461 41.376 83.3128 41.376C83.5848 41.376 83.8194 41.3253 84.0168 41.224C84.2141 41.1173 84.3661 40.9573 84.4728 40.744C84.5848 40.5253 84.6408 40.248 84.6408 39.912V36.4H85.4408V39.904C85.4408 40.4053 85.3448 40.8187 85.1528 41.144C84.9608 41.464 84.7021 41.704 84.3768 41.864C84.0514 42.0187 83.6914 42.096 83.2968 42.096ZM90.0731 42V36.4H91.9691C92.4117 36.4 92.7744 36.4747 93.0571 36.624C93.3397 36.7733 93.5477 36.9733 93.6811 37.224C93.8197 37.4693 93.8891 37.7493 93.8891 38.064C93.8891 38.3627 93.8197 38.64 93.6811 38.896C93.5477 39.1467 93.3371 39.3493 93.0491 39.504C92.7611 39.6533 92.3931 39.728 91.9451 39.728H90.8731V42H90.0731ZM93.0171 42L91.8091 39.512H92.6891L93.9451 42H93.0171ZM90.8731 39.12H91.9131C92.3077 39.12 92.5984 39.024 92.7851 38.832C92.9717 38.6347 93.0651 38.384 93.0651 38.08C93.0651 37.7707 92.9744 37.5253 92.7931 37.344C92.6117 37.1627 92.3184 37.072 91.9131 37.072H90.8731V39.12ZM98.4446 42V36.4H101.981V37.056H99.2446V38.848H101.741V39.488H99.2446V41.344H101.981V42H98.4446Z" fill="#BC9B73"></path><path d="M56.736 19.448H53.92C53.376 17.432 51.84 16.44 49.376 16.44C47.616 16.44 46.272 17.08 45.312 18.328C44.384 19.576 43.904 21.08 43.904 22.872C43.904 24.504 44.384 25.944 45.312 27.16C46.24 28.376 47.552 28.984 49.184 28.984C51.968 28.984 53.6 28.024 54.112 25.624H56.896C56.032 29.752 53.504 31.384 49.12 31.384C46.656 31.384 44.672 30.616 43.232 29.048C41.792 27.48 41.088 25.4 41.088 22.872C41.088 20.344 41.856 18.264 43.392 16.6C44.96 14.904 46.976 14.072 49.472 14.072C51.52 14.072 53.216 14.552 54.528 15.544C55.84 16.536 56.576 17.816 56.736 19.448ZM66.7443 14.456V16.824H63.4483V27.544C63.4483 28.312 63.6723 28.568 64.6643 28.568H66.5843V31H63.3523C61.3043 31 60.6323 29.848 60.6323 27.832V16.824H57.9123V14.456H60.6323V10.52L63.3523 9.176H63.4483V14.456H66.7443ZM81.1558 23.224V14.456H84.0358V31H81.3158V27.416H81.2518C80.4838 30.072 78.4358 31.384 75.8758 31.384C71.6838 31.384 69.5718 29.048 69.5718 25.336V14.456H72.4518V25.048C72.4518 27.96 73.8278 28.984 76.2598 28.984C79.4918 28.984 81.1558 27.352 81.1558 23.224ZM100.069 27.088C100.285 28 100.501 28.72 100.693 29.224C100.885 29.728 101.197 30.256 101.605 30.76V31H99.1325C98.8205 30.592 98.6045 30.184 98.4365 29.752C98.2685 29.32 98.1245 28.768 97.9805 28.12C97.8605 27.472 97.7645 27.064 97.7165 26.896C97.1645 24.952 96.2285 23.824 94.4285 23.824H89.8925V31H87.6125V13.864H94.9085C98.5805 13.864 100.573 15.712 100.573 18.496C100.573 20.944 99.4445 22.48 97.1885 23.104C98.0285 23.296 98.6285 23.704 99.0125 24.352C99.4445 25 99.8045 25.912 100.069 27.088ZM89.8925 15.784V21.904H94.8125C97.1165 21.904 98.2685 20.776 98.2685 18.496C98.2685 16.696 97.1405 15.784 94.9085 15.784H89.8925Z" fill="white"></path><path fill-rule="evenodd" clip-rule="evenodd" d="M0 3H1H82V4H1V47H82V48H1H0V3Z" fill="#BC9B73"></path></svg>